<?xml version="1.0" encoding="utf-8"?>
<!-- Generator: Adobe Illustrator 24.2.3, SVG Export Plug-In . SVG Version: 6.00 Build 0)  -->
<svg version="1.1" id="Layer_1" xmlns="http://www.w3.org/2000/svg" xmlns:xlink="http://www.w3.org/1999/xlink" x="0px" y="0px"
	 viewBox="0 0 188.04 137.56" style="enable-background:new 0 0 188.04 137.56;" xml:space="preserve">
<style type="text/css">
	.st0{fill:#2D1E2F;}
	.st1{fill:none;stroke:#2D1E2F;stroke-width:6.3;stroke-miterlimit:10;}
	.st2{fill:#FFFFFF;}
	.st3{fill:none;stroke:#FDBB41;stroke-width:6.3;stroke-miterlimit:10;}
	.st4{fill:none;stroke:#000000;stroke-width:6.3;stroke-miterlimit:10;}
</style>
<g>
	<g>
		<path class="st0" d="M64.03,35.96L49.51,96.54h7.81l6.79-30.65c1.7-7.55,3.22-15.1,4.24-20.94h0.17
			c0.93,6.02,2.72,13.21,4.67,21.03l7.64,30.56h7.73l6.96-30.74c1.61-7.19,3.14-14.38,3.99-20.76h0.17
			c1.19,6.65,2.8,13.39,4.58,20.95l16.6,67.46h8.39l-26.09-97.49h-7.72l-7.22,31.55c-1.78,7.73-2.97,13.66-3.73,19.78h-0.17
			c-1.02-6.02-2.29-11.96-4.41-19.78l-8.15-31.55H64.03z"/>
	</g>
	<circle class="st1" cx="84.44" cy="70.17" r="51.02"/>
	<polygon class="st2" points="123.55,96.8 129.78,101.23 122.84,109.32 120.68,101.25 	"/>
	<line class="st3" x1="6.2" y1="3.09" x2="6.2" y2="135.55"/>
	<path class="st4" d="M191.92,133.12"/>
	<polyline class="st3" points="152.86,3.09 182.43,69.42 152.27,135.48 	"/>
</g>
</svg>
