<?xml version="1.0" encoding="utf-8"?>
<!-- Generator: Adobe Illustrator 24.2.3, SVG Export Plug-In . SVG Version: 6.00 Build 0)  -->
<svg version="1.1" id="Layer_1" xmlns="http://www.w3.org/2000/svg" xmlns:xlink="http://www.w3.org/1999/xlink" x="0px" y="0px"
	 viewBox="0 0 436.21 137.93" style="enable-background:new 0 0 436.21 137.93;" xml:space="preserve">
<style type="text/css">
	.st0{fill:#2D1E2F;}
	.st1{fill:#FDBB41;}
	.st2{fill:none;stroke:#FDBB41;stroke-width:6.3;stroke-miterlimit:10;}
	.st3{fill:#FDBB41;stroke:#2D1E2F;stroke-width:1.26;stroke-miterlimit:10;}
	.st4{fill:none;stroke:#EE2A6F;stroke-width:6.3;stroke-miterlimit:10;}
</style>
<rect class="st0" width="436.21" height="137.93"/>
<g>
	<g>
		<path class="st1" d="M35.09,36.34L20.58,96.93h7.81l6.79-30.65c1.7-7.55,3.22-15.1,4.24-20.94h0.17
			c0.93,6.02,2.72,13.21,4.67,21.03l7.64,30.56h7.73l6.96-30.74c1.61-7.19,3.14-14.38,3.99-20.76h0.17
			c1.19,6.65,2.8,13.39,4.58,20.95l16.6,67.46h8.39L74.23,36.34H66.5l-7.22,31.55c-1.78,7.73-2.97,13.66-3.73,19.78h-0.17
			c-1.02-6.02-2.29-11.96-4.41-19.78l-8.15-31.55H35.09z"/>
	</g>
	<circle class="st2" cx="55.51" cy="70.56" r="51.02"/>
	<polygon class="st0" points="94.62,97.19 100.84,101.62 93.91,109.7 91.75,101.64 	"/>
	<circle class="st0" cx="55.58" cy="70.58" r="47.76"/>
	<g>
		<g>
			<g>
				<g>
					<path class="st1" d="M376.72,104.57c-10.15,0-18.42-8.31-18.42-18.52c0-10.21,8.26-18.52,18.42-18.52s18.42,8.31,18.42,18.52
						C395.13,96.26,386.87,104.57,376.72,104.57z M376.62,73.65c-6.62,0-12,5.56-12,12.41s5.43,12.41,12.1,12.41
						c6.79,0,12.3-5.56,12.3-12.41c0-1.36-0.13-2.56-0.41-3.65l-0.06-0.25l-0.19,0.17c-0.96,0.87-2.32,1.37-3.71,1.37
						c-3.18,0-5.77-2.54-5.77-5.67c0-1.4,0.5-2.65,1.46-3.6l0.2-0.2l-0.27-0.07C378.91,73.82,377.71,73.65,376.62,73.65z"/>
					<path class="st0" d="M376.72,67.7c10.07,0,18.26,8.24,18.26,18.36c0,10.12-8.19,18.36-18.26,18.36
						c-10.07,0-18.26-8.24-18.26-18.36C358.46,75.93,366.65,67.7,376.72,67.7 M376.72,98.62c6.87,0,12.46-5.64,12.46-12.56
						c0-1.38-0.13-2.58-0.41-3.69l-0.13-0.51l-0.39,0.35c-0.94,0.84-2.25,1.32-3.6,1.32c-3.09,0-5.61-2.47-5.61-5.51
						c0-1.36,0.49-2.57,1.41-3.49l0.39-0.39L380.31,74c-1.38-0.34-2.58-0.51-3.69-0.51c-6.71,0-12.16,5.64-12.16,12.56
						C364.46,92.98,369.96,98.62,376.72,98.62 M376.72,67.38c-10.24,0-18.57,8.43-18.57,18.67c0,10.14,8.33,18.67,18.57,18.67
						c10.24,0,18.57-8.53,18.57-18.67C395.29,75.81,386.96,67.38,376.72,67.38L376.72,67.38z M376.72,98.3
						c-6.73,0-11.95-5.62-11.95-12.25c0-6.63,5.12-12.25,11.85-12.25c1.2,0,2.41,0.2,3.61,0.5c-1,1-1.51,2.31-1.51,3.71
						c0,3.21,2.71,5.82,5.92,5.82c1.41,0,2.81-0.5,3.81-1.41c0.3,1.2,0.4,2.41,0.4,3.61C388.86,92.68,383.44,98.3,376.72,98.3
						L376.72,98.3z"/>
				</g>
			</g>
		</g>
		<g>
			<path class="st3" d="M223.72,31.38l16.83,72.79h-9.05l-7.87-36.83c-1.97-9.07-3.74-18.14-4.92-25.16h-0.2
				c-1.08,7.24-3.15,15.88-5.41,25.27l-8.86,36.72h-8.95l-8.07-36.94c-1.87-8.64-3.64-17.28-4.62-24.95h-0.2
				c-1.38,7.99-3.25,16.09-5.31,25.16l-8.76,36.72h-8.76l18.79-72.79h8.95l8.36,37.91c2.07,9.29,3.44,16.42,4.33,23.76h0.2
				c1.18-7.24,2.66-14.36,5.12-23.76l9.45-37.91H223.72z"/>
		</g>
		<g>
			<path class="st1" d="M249.13,86.9c0.14,8.57,5.62,12.1,11.95,12.1c4.54,0,7.27-0.79,9.65-1.8l1.08,4.54
				c-2.23,1.01-6.05,2.16-11.59,2.16c-10.73,0-17.14-7.06-17.14-17.57s6.19-18.79,16.35-18.79c11.38,0,14.4,10.01,14.4,16.42
				c0,1.3-0.14,2.3-0.22,2.95H249.13z M267.71,82.36c0.07-4.03-1.66-10.3-8.79-10.3c-6.41,0-9.22,5.9-9.72,10.3H267.71z"/>
			<path class="st1" d="M284.41,68.32l4.97,7.49c1.3,1.94,2.38,3.74,3.53,5.69h0.22c1.15-2.09,2.3-3.89,3.46-5.76l4.9-7.42h6.84
				l-11.88,16.85l12.24,18h-7.2l-5.11-7.85c-1.37-2.02-2.52-3.96-3.75-6.05h-0.14c-1.15,2.09-2.38,3.96-3.67,6.05l-5.04,7.85h-6.98
				l12.38-17.79l-11.81-17.07H284.41z"/>
			<path class="st1" d="M321.85,58.53c0.07,2.16-1.51,3.89-4.03,3.89c-2.23,0-3.82-1.73-3.82-3.89c0-2.23,1.66-3.96,3.96-3.96
				C320.34,54.57,321.85,56.3,321.85,58.53z M314.79,103.17V68.32h6.34v34.85H314.79z"/>
			<path class="st1" d="M356.48,101.88c-1.66,0.86-5.33,2.02-10.01,2.02c-10.51,0-17.35-7.13-17.35-17.79
				c0-10.73,7.34-18.51,18.72-18.51c3.74,0,7.06,0.94,8.78,1.8l-1.44,4.9c-1.51-0.86-3.89-1.66-7.34-1.66
				c-7.99,0-12.31,5.9-12.31,13.18c0,8.06,5.18,13.03,12.1,13.03c3.6,0,5.98-0.94,7.78-1.73L356.48,101.88z"/>
		</g>
	</g>
	<polyline class="st4" points="401.5,3.46 431.07,69.79 400.91,135.86 	"/>
	<line class="st4" x1="131.77" y1="3.43" x2="131.77" y2="135.89"/>
</g>
</svg>
