<?xml version="1.0" encoding="utf-8"?>
<!-- Generator: Adobe Illustrator 24.2.3, SVG Export Plug-In . SVG Version: 6.00 Build 0)  -->
<svg version="1.1" id="Layer_1" xmlns="http://www.w3.org/2000/svg" xmlns:xlink="http://www.w3.org/1999/xlink" x="0px" y="0px"
	 viewBox="0 0 708.66 283.46" style="enable-background:new 0 0 708.66 283.46;" xml:space="preserve">
<style type="text/css">
	.st0{fill:#2D1E2F;}
	.st1{fill:#FDBB41;}
	.st2{fill:none;stroke:#FDBB41;stroke-width:6.3;stroke-miterlimit:10;}
	.st3{fill:#FDBB41;stroke:#2D1E2F;stroke-width:1.26;stroke-miterlimit:10;}
	.st4{fill:none;stroke:#EE2A6F;stroke-width:6.3;stroke-miterlimit:10;}
</style>
<rect x="-3.97" y="-3.66" class="st0" width="717.24" height="291.38"/>
<g>
	<g>
		<path class="st1" d="M163.2,102l-14.52,60.59h7.81l6.79-30.65c1.7-7.55,3.22-15.1,4.24-20.94h0.17
			c0.93,6.02,2.72,13.21,4.67,21.03l7.64,30.56h7.73l6.96-30.74c1.61-7.19,3.14-14.38,3.99-20.76h0.17
			c1.19,6.65,2.8,13.39,4.58,20.95l16.6,67.46h8.39L202.33,102h-7.72l-7.22,31.55c-1.78,7.73-2.97,13.66-3.73,19.78h-0.17
			c-1.02-6.02-2.29-11.96-4.41-19.78L170.92,102H163.2z"/>
	</g>
	<circle class="st2" cx="183.61" cy="136.22" r="51.02"/>
	<polygon class="st0" points="222.72,162.84 228.95,167.27 222.01,175.36 219.85,167.29 	"/>
	<circle class="st0" cx="183.68" cy="136.23" r="47.76"/>
	<g>
		<g>
			<g>
				<g>
					<path class="st1" d="M504.82,170.23c-10.15,0-18.42-8.31-18.42-18.52c0-10.21,8.26-18.52,18.42-18.52s18.42,8.31,18.42,18.52
						C523.24,161.92,514.98,170.23,504.82,170.23z M504.72,139.3c-6.62,0-12,5.56-12,12.41s5.43,12.41,12.1,12.41
						c6.79,0,12.3-5.56,12.3-12.41c0-1.36-0.13-2.56-0.41-3.65l-0.06-0.25l-0.19,0.17c-0.96,0.87-2.32,1.37-3.71,1.37
						c-3.18,0-5.77-2.54-5.77-5.67c0-1.4,0.5-2.65,1.46-3.6l0.2-0.2l-0.27-0.07C507.01,139.47,505.81,139.3,504.72,139.3z"/>
					<path class="st0" d="M504.82,133.35c10.07,0,18.26,8.24,18.26,18.36c0,10.12-8.19,18.36-18.26,18.36
						c-10.07,0-18.26-8.24-18.26-18.36C486.56,141.59,494.75,133.35,504.82,133.35 M504.82,164.27c6.87,0,12.46-5.64,12.46-12.56
						c0-1.38-0.13-2.58-0.41-3.69l-0.13-0.51l-0.39,0.35c-0.94,0.84-2.25,1.32-3.6,1.32c-3.09,0-5.61-2.47-5.61-5.51
						c0-1.36,0.49-2.57,1.41-3.49l0.39-0.39l-0.54-0.13c-1.38-0.34-2.58-0.51-3.69-0.51c-6.71,0-12.16,5.64-12.16,12.56
						C492.56,158.64,498.06,164.27,504.82,164.27 M504.82,133.04c-10.24,0-18.57,8.43-18.57,18.67c0,10.14,8.33,18.67,18.57,18.67
						c10.24,0,18.57-8.53,18.57-18.67C523.39,141.47,515.06,133.04,504.82,133.04L504.82,133.04z M504.82,163.96
						c-6.73,0-11.95-5.62-11.95-12.25c0-6.63,5.12-12.25,11.85-12.25c1.2,0,2.41,0.2,3.61,0.5c-1,1-1.51,2.31-1.51,3.71
						c0,3.21,2.71,5.82,5.92,5.82c1.41,0,2.81-0.5,3.81-1.41c0.3,1.2,0.4,2.41,0.4,3.61C516.97,158.34,511.55,163.96,504.82,163.96
						L504.82,163.96z"/>
				</g>
			</g>
		</g>
		<g>
			<path class="st3" d="M351.82,97.03l16.83,72.79h-9.05L351.73,133c-1.97-9.07-3.74-18.14-4.92-25.16h-0.2
				c-1.08,7.24-3.15,15.88-5.41,25.27l-8.86,36.72h-8.95l-8.07-36.94c-1.87-8.64-3.64-17.28-4.62-24.95h-0.2
				c-1.38,7.99-3.25,16.09-5.31,25.16l-8.76,36.72h-8.76l18.79-72.79h8.95l8.36,37.91c2.07,9.29,3.44,16.42,4.33,23.76h0.2
				c1.18-7.24,2.66-14.36,5.12-23.76l9.45-37.91H351.82z"/>
		</g>
		<g>
			<path class="st1" d="M377.23,152.55c0.14,8.57,5.62,12.1,11.95,12.1c4.54,0,7.27-0.79,9.65-1.8l1.08,4.54
				c-2.23,1.01-6.05,2.16-11.59,2.16c-10.73,0-17.14-7.06-17.14-17.57s6.19-18.79,16.35-18.79c11.38,0,14.4,10.01,14.4,16.42
				c0,1.3-0.14,2.3-0.22,2.95H377.23z M395.81,148.02c0.07-4.03-1.66-10.3-8.79-10.3c-6.41,0-9.22,5.9-9.72,10.3H395.81z"/>
			<path class="st1" d="M412.51,133.98l4.97,7.49c1.3,1.94,2.38,3.74,3.53,5.69h0.22c1.15-2.09,2.3-3.89,3.46-5.76l4.9-7.42h6.84
				l-11.88,16.85l12.24,18h-7.2l-5.11-7.85c-1.37-2.02-2.52-3.96-3.75-6.05h-0.14c-1.15,2.09-2.38,3.96-3.67,6.05l-5.04,7.85h-6.98
				l12.38-17.79l-11.81-17.07H412.51z"/>
			<path class="st1" d="M449.95,124.18c0.07,2.16-1.51,3.89-4.03,3.89c-2.23,0-3.82-1.73-3.82-3.89c0-2.23,1.66-3.96,3.96-3.96
				C448.44,120.22,449.95,121.95,449.95,124.18z M442.9,168.83v-34.85h6.34v34.85H442.9z"/>
			<path class="st1" d="M484.59,167.53c-1.66,0.86-5.33,2.02-10.01,2.02c-10.51,0-17.35-7.13-17.35-17.79
				c0-10.73,7.34-18.51,18.72-18.51c3.74,0,7.06,0.94,8.78,1.8l-1.44,4.9c-1.51-0.86-3.89-1.66-7.34-1.66
				c-7.99,0-12.31,5.9-12.31,13.18c0,8.06,5.18,13.03,12.1,13.03c3.6,0,5.98-0.94,7.78-1.73L484.59,167.53z"/>
		</g>
	</g>
	<polyline class="st4" points="529.6,69.12 559.17,135.45 529.01,201.51 	"/>
	<line class="st4" x1="259.87" y1="69.09" x2="259.87" y2="201.54"/>
</g>
</svg>
