<?xml version="1.0" encoding="utf-8"?>
<!-- Generator: Adobe Illustrator 24.2.3, SVG Export Plug-In . SVG Version: 6.00 Build 0)  -->
<svg version="1.1" id="Layer_1" xmlns="http://www.w3.org/2000/svg" xmlns:xlink="http://www.w3.org/1999/xlink" x="0px" y="0px"
	 viewBox="0 0 188.04 137.56" style="enable-background:new 0 0 188.04 137.56;" xml:space="preserve">
<style type="text/css">
	.st0{fill:#2D1E2F;}
	.st1{fill:none;stroke:#FDBB41;stroke-width:6.3;stroke-miterlimit:10;}
	.st2{fill:none;stroke:#000000;stroke-width:6.3;stroke-miterlimit:10;}
</style>
<g>
	<path class="st0" d="M64.03,35.96L49.51,96.54h7.81l6.79-30.65c1.7-7.55,3.22-15.1,4.24-20.94h0.17
		c0.93,6.02,2.72,13.21,4.67,21.03l7.64,30.56h7.73l6.96-30.74c1.61-7.19,3.14-14.38,3.99-20.76h0.17
		c1.19,6.65,2.8,13.39,4.58,20.95l16.6,67.46h8.39l-26.09-97.49h-7.72l-7.22,31.55c-1.78,7.73-2.97,13.66-3.73,19.78h-0.17
		c-1.02-6.02-2.29-11.96-4.41-19.78l-8.15-31.55H64.03z"/>
</g>
<path class="st0" d="M120.71,101.37c-8.79,10.2-21.78,16.68-36.27,16.68c-26.4,0-47.87-21.48-47.87-47.87S58.04,22.3,84.44,22.3
	c26.4,0,47.87,21.48,47.87,47.87c0,9.98-3.08,19.26-8.32,26.94l5.13,3.65c5.98-8.71,9.5-19.25,9.5-30.59
	c0-29.87-24.3-54.17-54.17-54.17c-29.87,0-54.17,24.3-54.17,54.17c0,29.87,24.3,54.17,54.17,54.17c14.89,0,28.39-6.04,38.2-15.8
	L120.71,101.37z"/>
<line class="st1" x1="6.2" y1="3.09" x2="6.2" y2="135.55"/>
<path class="st2" d="M191.92,133.12"/>
<polyline class="st1" points="152.86,3.09 182.43,69.42 152.27,135.48 "/>
</svg>
